PathFileType	4	(X/Y/Z)	Walk7.trc
DataRate	CameraRate	NumFrames	NumMarkers	Units	OrigDataRate	OrigDataStartFrame	OrigNumFrames
200.000000	200.000000	9	60	mm	200.000000	668	814
Frame#	Times		RCAR		LToe		RWRU		RACR1		LUA1		LFA1		LASI		RFHD		LElbow		RLFC		RFA1		RTH3		LLFC		STRN		LCAR		LWRR		LACR1		RTB2		RToe		RWRR		RMT5		RMT1		LWRU		RMFC		RTH2		C7		RTB3		RPSI		LPSI		RCAL		RTB1		LTH3		LTB1		LTB4		LTH1		LTH4		RTB4		CLAV		LMT1		LMFC		RASI		RMMAL		RLMAL		LTH2		RBHD		LBHD		LTB2		LTB3		RElbow		RTH4		RUA1		LMMAL		RBack		LCAL		T10		RTH1		LMT5		LElbowM		RElbowM		LLMAL
			X1	Y1	Z1	X2	Y2	Z2	X3	Y3	Z3	X4	Y4	Z4	X5	Y5	Z5	X6	Y6	Z6	X7	Y7	Z7	X8	Y8	Z8	X9	Y9	Z9	X10	Y10	Z10	X11	Y11	Z11	X12	Y12	Z12	X13	Y13	Z13	X14	Y14	Z14	X15	Y15	Z15	X16	Y16	Z16	X17	Y17	Z17	X18	Y18	Z18	X19	Y19	Z19	X20	Y20	Z20	X21	Y21	Z21	X22	Y22	Z22	X23	Y23	Z23	X24	Y24	Z24	X25	Y25	Z25	X26	Y26	Z26	X27	Y27	Z27	X28	Y28	Z28	X29	Y29	Z29	X30	Y30	Z30	X31	Y31	Z31	X32	Y32	Z32	X33	Y33	Z33	X34	Y34	Z34	X35	Y35	Z35	X36	Y36	Z36	X37	Y37	Z37	X38	Y38	Z38	X39	Y39	Z39	X40	Y40	Z40	X41	Y41	Z41	X42	Y42	Z42	X43	Y43	Z43	X44	Y44	Z44	X45	Y45	Z45	X46	Y46	Z46	X47	Y47	Z47	X48	Y48	Z48	X49	Y49	Z49	X50	Y50	Z50	X51	Y51	Z51	X52	Y52	Z52	X53	Y53	Z53	X54	Y54	Z54	X55	Y55	Z55	X56	Y56	Z56	X57	Y57	Z57	X58	Y58	Z58	X59	Y59	Z59	X60	Y60	Z60

668	3.34	617.86	889.14	381.72	903.05	120.09	-73.526	612.88	921.44	314.18	460.34	1498.3	214.92	402.93	1339.5	-236.79	430.18	1039.5	-302.86	489.84	1026.2	-137.34	622.14	1658.8	87.951	355.5	1173.1	-280.06	301.9	507.83	192.05	537.78	1047.2	346.5	316.46	647.81	206.75	574.14	519.47	-150.3	559.88	1289.5	18.306	463.85	874.32	-325.96	475.67	910.42	-269.5	427.58	1523.1	-156.71	294.44	268.88	154.17	401.03	32.733	66.763	550.65	906.74	375.54	307.95	29.417	153.46	350.46	50.732	53.529	392.94	911.75	-315.22	296.14	507.32	42.92	381.46	727.85	219.73	341.18	1558.6	45.061	268.99	193.22	83.041	261.13	1067.5	64.392	263.22	1066.3	-44.646	126.95	52.819	80.766	320.17	357.47	102.6	535.49	651.55	-178.56	657.23	390.89	-52.457	673.2	307.54	-52.972	466.83	810.82	-201.01	501.7	731.24	-191.88	294.75	274.72	91.815	502.07	1461.6	13.473	848.75	106.92	-60.525	592.09	516.33	-8.6594	474.39	1038.9	183.37	222.03	107.55	28.202	192.88	79.659	119.31	554.36	756.95	-183.47	455.63	1693	112.16	453.23	1693	-30.692	694.45	311.7	-112.9	693.2	224.03	-54.661	430.58	1159.3	344.41	321.78	730.46	215.35	455.69	1320.1	293.28	702.94	121.39	-21.049	288.58	1437.1	166.29	635.61	46.654	-81.245	281.73	1202.1	14.867	328.88	817.97	227.13	817.24	81.347	-144	332.66	1145.7	-192.59	398.63	1126.6	257.97	690.39	92.673	-120.65
669	3.345	623.2	888.52	381.02	913.16	123.68	-73.95	618.11	920.79	313.47	465.2	1497.7	214.38	407.99	1338.9	-237.22	435.02	1038.7	-303.01	495.05	1025.4	-137.57	627.12	1658	87.421	360.43	1172.4	-280.4	304.49	507.81	191.84	543.04	1046.6	345.88	319.65	647.75	206.5	577.63	518.03	-150.62	564.83	1288.8	17.906	468.52	873.41	-325.88	480.27	909.6	-269.45	432.63	1522.5	-157.21	295.69	268.87	154.07	401.09	32.713	66.702	555.98	906.11	374.94	307.95	29.402	153.35	350.58	50.71	53.504	397.66	911.05	-315.41	298.99	507.26	42.697	385	727.49	219.38	346.08	1557.9	44.5	269.9	193.32	82.933	266.12	1066.9	63.82	268.32	1065.7	-45.204	127.09	53.576	80.606	322.01	357.26	102.51	538.55	649.94	-179.09	662.73	390.54	-52.747	680.14	307.45	-53.214	470.78	809.65	-201.32	505.14	729.85	-192.35	296.12	274.68	91.669	507	1460.9	12.999	859.13	109.64	-60.823	595.16	514.72	-8.8192	479.16	1038.3	183.13	222.45	107.91	28.106	193.12	80.165	119.18	558.02	755.25	-183.98	460.64	1692.4	111.63	458.23	1692.3	-31.226	701.13	311.87	-113.18	701.57	224.27	-54.886	435.78	1158.6	343.9	325.29	730.38	215.13	460.71	1319.5	292.76	713.06	121.83	-21.163	293.44	1436.5	165.76	646.92	45.84	-81.164	286.73	1201.4	14.275	332.78	817.85	226.88	827.97	83.237	-144.14	337.52	1145.2	-192.92	403.78	1125.9	257.5	700.88	92.773	-120.7
670	3.35	628.49	887.86	380.32	922.86	127.12	-74.463	623.3	920.12	312.76	470.07	1497	213.82	413.05	1338.2	-237.67	439.89	1037.9	-303.19	500.29	1024.6	-137.8	632.1	1657.2	86.873	365.38	1171.7	-280.77	307.13	507.81	191.64	548.28	1045.9	345.24	322.88	647.7	206.25	581.15	516.57	-150.93	569.82	1288.2	17.49	473.23	872.49	-325.8	484.92	908.79	-269.41	437.69	1521.9	-157.74	296.97	268.87	153.99	401.15	32.694	66.636	561.27	905.46	374.34	307.95	29.378	153.24	350.69	50.69	53.494	402.44	910.34	-315.61	301.88	507.21	42.48	388.58	727.13	219.02	351	1557.3	43.915	270.81	193.44	82.843	271.15	1066.3	63.229	273.44	1065	-45.783	127.23	54.378	80.484	323.88	357.06	102.42	541.73	648.39	-179.66	668.15	390.18	-53.04	686.92	307.35	-53.429	474.81	808.52	-201.66	508.68	728.51	-192.88	297.51	274.65	91.542	511.95	1460.3	12.504	869.13	112.26	-61.146	598.26	513.13	-8.9899	483.96	1037.7	182.9	222.87	108.3	28.029	193.38	80.701	119.09	561.77	753.59	-184.51	465.66	1691.7	111.08	463.25	1691.7	-31.782	707.61	311.97	-113.45	709.7	224.51	-55.056	440.99	1158	343.37	328.85	730.31	214.91	465.75	1318.8	292.21	722.86	122.29	-21.185	298.31	1435.8	165.2	657.82	45.082	-80.88	291.76	1200.7	13.663	336.72	817.73	226.64	838.22	85.018	-144.26	342.4	1144.6	-193.28	408.92	1125.2	257.01	710.96	92.86	-120.63
671	3.355	633.74	887.17	379.61	932.13	130.37	-75.051	628.46	919.4	312.04	474.95	1496.3	213.24	418.13	1337.5	-238.15	444.79	1037.1	-303.39	505.56	1023.8	-138.04	637.1	1656.5	86.307	370.35	1171	-281.17	309.82	507.82	191.44	553.51	1045.3	344.59	326.16	647.65	206	584.7	515.09	-151.23	574.83	1287.6	17.058	478	871.56	-325.73	489.61	907.97	-269.38	442.77	1521.2	-158.29	298.28	268.88	153.92	401.19	32.675	66.561	566.52	904.8	373.74	307.96	29.346	153.13	350.79	50.674	53.499	407.26	909.62	-315.84	304.79	507.16	42.267	392.2	726.79	218.66	355.92	1556.6	43.304	271.74	193.58	82.773	276.22	1065.7	62.617	278.6	1064.3	-46.383	127.38	55.226	80.406	325.78	356.87	102.33	545.04	646.9	-180.27	673.48	389.79	-53.325	693.53	307.23	-53.613	478.95	807.43	-202.03	512.35	727.22	-193.48	298.93	274.63	91.435	516.92	1459.7	11.985	878.7	114.75	-61.489	601.39	511.55	-9.1641	488.79	1037	182.66	223.29	108.71	27.975	193.64	81.268	119.03	565.63	752	-185.05	470.68	1691.1	110.5	468.27	1691.1	-32.358	713.88	312.01	-113.7	717.56	224.72	-55.173	446.21	1157.3	342.8	332.46	730.25	214.71	470.81	1318.2	291.62	732.31	122.75	-21.119	303.21	1435.2	164.62	668.29	44.361	-80.412	296.81	1200	13.03	340.71	817.62	226.4	847.98	86.654	-144.36	347.29	1144	-193.68	414.06	1124.5	256.49	720.59	92.912	-120.44
672	3.36	638.94	886.45	378.9	940.96	133.38	-75.697	633.59	918.66	311.32	479.85	1495.7	212.63	423.21	1336.9	-238.66	449.74	1036.4	-303.6	510.87	1023	-138.28	642.1	1655.7	85.723	375.35	1170.3	-281.61	312.57	507.83	191.25	558.72	1044.6	343.93	329.5	647.61	205.76	588.3	513.59	-151.51	579.88	1287	16.61	482.82	870.63	-325.68	494.35	907.15	-269.37	447.86	1520.6	-158.87	299.64	268.91	153.87	401.23	32.657	66.476	571.74	904.13	373.13	307.98	29.306	153.03	350.89	50.662	53.521	412.13	908.89	-316.08	307.72	507.12	42.061	395.87	726.45	218.3	360.87	1555.9	42.668	272.69	193.74	82.724	281.32	1065.1	61.981	283.78	1063.7	-47.008	127.53	56.119	80.375	327.7	356.7	102.23	548.49	645.47	-180.9	678.73	389.36	-53.594	699.94	307.07	-53.762	483.2	806.39	-202.43	516.14	725.97	-194.14	300.36	274.62	91.349	521.91	1459	11.444	887.85	117.06	-61.842	604.56	510	-9.3348	493.67	1036.4	182.42	223.71	109.15	27.946	193.92	81.867	119.01	569.6	750.46	-185.62	475.7	1690.4	109.9	473.3	1690.4	-32.956	719.95	311.95	-113.93	725.14	224.87	-55.235	451.43	1156.6	342.21	336.13	730.19	214.52	475.88	1317.5	291.01	741.38	123.18	-20.975	308.12	1434.5	164.01	678.29	43.66	-79.783	301.89	1199.3	12.377	344.76	817.51	226.17	857.24	88.115	-144.44	352.19	1143.4	-194.11	419.19	1123.8	255.95	729.76	92.911	-120.16
673	3.365	644.1	885.71	378.18	949.33	136.11	-76.378	638.68	917.89	310.59	484.76	1495	212.01	428.3	1336.2	-239.2	454.72	1035.6	-303.84	516.2	1022.1	-138.53	647.11	1655	85.12	380.37	1169.6	-282.07	315.39	507.85	191.06	563.92	1043.9	343.25	332.9	647.58	205.52	591.93	512.08	-151.77	584.96	1286.4	16.146	487.69	869.69	-325.63	499.12	906.33	-269.37	452.97	1519.9	-159.47	301.03	268.95	153.83	401.26	32.641	66.378	576.92	903.45	372.51	308	29.259	152.94	350.98	50.656	53.56	417.05	908.15	-316.34	310.69	507.09	41.86	399.62	726.11	217.93	365.83	1555.2	42.008	273.64	193.92	82.697	286.47	1064.5	61.32	289	1063	-47.658	127.69	57.059	80.394	329.65	356.54	102.14	552.09	644.1	-181.55	683.88	388.89	-53.837	706.16	306.85	-53.873	487.57	805.4	-202.88	520.06	724.77	-194.85	301.82	274.63	91.283	526.92	1458.4	10.88	896.53	119.15	-62.194	607.79	508.49	-9.4954	498.58	1035.7	182.17	224.14	109.61	27.946	194.21	82.499	119.02	573.69	748.99	-186.21	480.73	1689.8	109.28	478.34	1689.8	-33.574	725.81	311.81	-114.13	732.41	224.97	-55.245	456.65	1156	341.6	339.86	730.14	214.34	480.97	1316.9	290.37	750.04	123.55	-20.761	313.05	1433.9	163.37	687.79	42.962	-79.019	307	1198.6	11.704	348.87	817.4	225.95	865.98	89.368	-144.5	357.1	1142.8	-194.57	424.32	1123.1	255.39	738.44	92.836	-119.8
674	3.37	649.21	884.94	377.46	957.22	138.5	-77.07	643.74	917.1	309.87	489.68	1494.4	211.37	433.4	1335.5	-239.77	459.73	1034.8	-304.1	521.56	1021.2	-138.8	652.13	1654.2	84.499	385.41	1168.9	-282.57	318.26	507.88	190.88	569.11	1043.2	342.56	336.38	647.55	205.29	595.63	510.56	-151.98	590.08	1285.8	15.666	492.61	868.75	-325.6	503.95	905.51	-269.38	458.09	1519.2	-160.09	302.46	269	153.81	401.28	32.626	66.266	582.06	902.76	371.9	308.03	29.208	152.85	351.06	50.655	53.617	422.01	907.39	-316.62	313.68	507.07	41.664	403.43	725.79	217.55	370.81	1554.5	41.324	274.62	194.11	82.693	291.65	1063.9	60.632	294.25	1062.3	-48.335	127.86	58.045	80.464	331.63	356.4	102.03	555.84	642.8	-182.19	688.93	388.36	-54.047	712.18	306.56	-53.942	492.05	804.44	-203.36	524.13	723.62	-195.59	303.3	274.65	91.236	531.95	1457.7	10.294	904.73	120.99	-62.531	611.09	507.03	-9.6399	503.54	1035.1	181.91	224.56	110.09	27.974	194.51	83.164	119.08	577.91	747.59	-186.81	485.76	1689.1	108.63	483.39	1689.1	-34.214	731.47	311.56	-114.29	739.36	224.97	-55.203	461.87	1155.3	340.96	343.67	730.09	214.17	486.07	1316.2	289.7	758.27	123.83	-20.482	318	1433.2	162.71	696.75	42.251	-78.149	312.13	1197.8	11.013	353.06	817.29	225.72	874.19	90.387	-144.53	362.03	1142.2	-195.06	429.44	1122.4	254.8	746.62	92.672	-119.36
675	3.375	654.28	884.15	376.75	964.62	140.52	-77.743	648.77	916.29	309.15	494.62	1493.7	210.71	438.5	1334.8	-240.36	464.78	1033.9	-304.38	526.95	1020.4	-139.09	657.16	1653.5	83.86	390.47	1168.1	-283.09	321.21	507.91	190.7	574.27	1042.5	341.85	339.92	647.52	205.06	599.38	509.06	-152.16	595.22	1285.2	15.168	497.58	867.8	-325.59	508.81	904.68	-269.41	463.22	1518.6	-160.74	303.94	269.07	153.8	401.3	32.612	66.138	587.16	902.07	371.28	308.07	29.155	152.78	351.14	50.659	53.69	427.02	906.62	-316.92	316.7	507.05	41.472	407.32	725.46	217.17	375.8	1553.8	40.617	275.61	194.33	82.711	296.87	1063.2	59.913	299.53	1061.7	-49.041	128.03	59.078	80.584	333.64	356.27	101.91	559.75	641.55	-182.82	693.88	387.77	-54.216	717.97	306.19	-53.965	496.65	803.53	-203.88	528.34	722.52	-196.35	304.81	274.68	91.207	537	1457.1	9.6847	912.43	122.53	-62.836	614.47	505.63	-9.7637	508.54	1034.4	181.63	225	110.61	28.033	194.83	83.862	119.17	582.27	746.25	-187.43	490.79	1688.4	107.96	488.45	1688.5	-34.876	736.92	311.19	-114.41	745.99	224.87	-55.108	467.09	1154.7	340.29	347.57	730.05	214.02	491.19	1315.6	289	766.02	123.99	-20.146	322.97	1432.5	162.01	705.14	41.512	-77.201	317.29	1197.1	10.304	357.34	817.18	225.5	881.86	91.144	-144.52	366.98	1141.5	-195.59	434.56	1121.7	254.18	754.28	92.402	-118.87
676	3.38	659.31	883.34	376.03	971.53	142.13	-78.369	653.77	915.46	308.42	499.58	1493.1	210.04	443.61	1334	-240.98	469.87	1033.1	-304.68	532.37	1019.5	-139.4	662.2	1652.8	83.202	395.55	1167.4	-283.64	324.24	507.95	190.52	579.42	1041.7	341.14	343.54	647.49	204.83	603.2	507.57	-152.31	600.39	1284.6	14.652	502.6	866.86	-325.59	513.72	903.86	-269.46	468.37	1517.8	-161.42	305.45	269.15	153.8	401.31	32.6	65.996	592.21	901.36	370.66	308.11	29.103	152.71	351.21	50.669	53.78	432.08	905.84	-317.24	319.75	507.04	41.282	411.3	725.14	216.77	380.81	1553.1	39.886	276.62	194.56	82.749	302.14	1062.6	59.165	304.83	1061	-49.775	128.22	60.159	80.753	335.68	356.15	101.79	563.81	640.37	-183.42	698.72	387.11	-54.336	723.54	305.73	-53.939	501.37	802.66	-204.42	532.7	721.46	-197.13	306.34	274.72	91.193	542.08	1456.4	9.0529	919.62	123.74	-63.091	617.93	504.29	-9.8628	513.6	1033.7	181.33	225.43	111.15	28.121	195.17	84.592	119.3	586.76	744.98	-188.06	495.83	1687.8	107.27	493.52	1687.8	-35.559	742.16	310.71	-114.48	752.26	224.64	-54.959	472.3	1154	339.6	351.55	730	213.88	496.31	1314.9	288.29	773.28	124.01	-19.757	327.96	1431.8	161.29	712.94	40.732	-76.201	322.48	1196.3	9.5772	361.7	817.07	225.28	888.98	91.618	-144.46	371.95	1140.8	-196.14	439.68	1121.1	253.54	761.41	92.013	-118.33
